<?xml version="1.0" standalone="no"?>
<!DOCTYPE svg PUBLIC "-//W3C//DTD SVG 20010904//EN"
 "http://www.w3.org/TR/2001/REC-SVG-20010904/DTD/svg10.dtd">
<svg version="1.0" xmlns="http://www.w3.org/2000/svg"
 width="500.000000pt" height="500.000000pt" viewBox="0 0 500.000000 500.000000"
 preserveAspectRatio="xMidYMid meet">
<metadata>
Created by potrace 1.11, written by Peter Selinger 2001-2013
</metadata>
<g transform="translate(0.000000,500.000000) scale(0.100000,-0.100000)"
fill="#000000" stroke="none">
<path d="M2623 4276 c-149 -36 -287 -148 -356 -287 -61 -125 -67 -177 -67
-628 0 -335 -3 -406 -16 -452 -30 -102 -94 -155 -200 -166 l-54 -6 2 -236 3
-236 50 -6 c92 -11 161 -62 197 -144 9 -22 14 -145 18 -485 l5 -455 31 -87
c55 -152 156 -268 289 -328 92 -42 150 -50 355 -50 l190 0 0 245 0 245 -112 1
c-136 0 -175 12 -203 59 -19 33 -20 55 -26 480 -6 475 -7 488 -60 597 -13 26
-49 74 -80 106 l-56 59 47 44 c51 48 98 127 126 214 16 48 18 110 23 500 5
405 8 448 24 478 27 50 67 62 202 62 l115 0 0 245 0 245 -197 -1 c-123 0 -218
-6 -250 -13z"/>
</g>
</svg>
