<svg height="566" width="566" xmlns="http://www.w3.org/2000/svg" xmlns:xlink="http://www.w3.org/1999/xlink"><defs><path id="a" d="m0 0h566v566h-566z"/><mask id="b" fill="#fff"><use fill="#fff" fill-rule="evenodd" xlink:href="#a"/></mask><mask id="c" fill="#fff"><rect fill="#fff" fill-rule="evenodd" height="404" rx="16" width="602"/></mask></defs><g fill="none" fill-rule="evenodd"><use fill="#1d252c" xlink:href="#a"/><g mask="url(#b)"><rect fill="#1d252c" height="402" rx="16" stroke="#fff" stroke-width="2" transform="matrix(0 -1 1 0 106 277)" width="600" x="-98" y="100"/><g transform="translate(237 -41)"><g transform="translate(0 96)"><circle cx="20" cy="20" fill="#394046" r="20"/><g fill="#1d252c"><path d="m16.707 14.707-1.414-1.414-6.707 6.707 6.707 6.707 1.414-1.414-5.292-5.293z"/><path d="m31 19.143h-20.154v1.714h20.154z"/></g><g transform="matrix(-1 0 0 1 341 0)"><circle cx="20" cy="20" fill="#394046" r="20"/><g fill="#1d252c"><path d="m16.707 14.707-1.414-1.414-6.707 6.707 6.707 6.707 1.414-1.414-5.292-5.293z"/><path d="m31 19.143h-20.154v1.714h20.154z"/></g></g></g><rect fill="#394046" height="232" rx="8" width="232" x="54"/></g></g><g mask="url(#b)"><g transform="translate(-76 126)"><rect fill="#1d252c" height="402" rx="16" stroke="#fff" stroke-width="2" width="600" x="1" y="1"/><g mask="url(#c)"><g transform="translate(49 33)"><rect fill="#394046" height="232" rx="8" width="232" x="52" y="53"/><rect fill="#394046" height="153" rx="8" width="153" x="300" y="53"/><rect height="16" rx="2" width="98" x="300" y="231"/><rect height="8" rx="2" width="134" x="300" y="253"/><rect height="8" rx="2" width="149" x="300" y="265"/><rect height="8" rx="2" width="75" x="300" y="277"/><circle cx="20" cy="169" fill="#394046" r="20"/><path d="m31 168.143h-20.154v1.714h20.154z" fill="#1d252c"/><circle cx="485" cy="169" fill="#394046" r="20" transform="matrix(-1 0 0 1 970 0)"/><g fill="#1d252c"><path d="m488.293 163.707 1.414-1.414 6.707 6.707-6.707 6.707-1.414-1.414 5.292-5.293z"/><path d="m474 168.143h20.154v1.714h-20.154z"/></g><rect height="30" rx="4" stroke="#394046" stroke-width="2" width="129" x="114" y="311"/><rect height="30" rx="4" stroke="#394046" stroke-width="2" width="129" x="261" y="311"/><g fill="#394046"><rect height="16" rx="8" width="74" x="80"/><rect height="16" rx="8" width="74" x="170"/><rect height="16" rx="8" width="74" x="260"/><rect height="16" rx="8" width="74" x="350"/></g></g></g></g></g></g></svg>