<svg height="566" width="566" xmlns="http://www.w3.org/2000/svg" xmlns:xlink="http://www.w3.org/1999/xlink"><defs><filter id="a"><feColorMatrix in="SourceGraphic" values="0 0 0 0 1.000000 0 0 0 0 1.000000 0 0 0 0 1.000000 0 0 0 1.000000 0"/></filter><path id="b" d="m0 0h566v566h-566z"/><mask id="c" fill="#fff"><use fill="#fff" fill-rule="evenodd" xlink:href="#b"/></mask><mask id="d" fill="#fff"><rect fill="#fff" fill-rule="evenodd" height="472" rx="16" width="703"/></mask></defs><g fill="none" fill-rule="evenodd"><use fill="#1d252c" xlink:href="#b"/><g mask="url(#c)"><g transform="translate(-188 47)"><rect height="470" rx="16" stroke="#fff" stroke-width="2" width="701" x="1" y="1"/><g filter="url(#a)" opacity=".122"><g mask="url(#d)"><g fill="#394046" transform="translate(225 33)"><rect height="16" rx="8" width="74"/><rect height="16" rx="8" width="74" x="90"/><rect height="16" rx="8" width="74" x="180"/></g><g transform="translate(22 93)"><rect fill="#394046" height="215" rx="8" width="382"/><rect height="22" rx="4" stroke="#394046" stroke-width="2" width="68" x="313" y="232"/><rect fill="#394046" height="12" rx="2" width="36" x="346" y="266"/><rect fill="#394046" height="12" rx="2" width="36" x="302" y="266"/><rect height="22" rx="4" stroke="#394046" stroke-width="2" width="68" x="233" y="232"/><g fill="#394046"><rect height="8" rx="2" width="174" y="258"/><rect height="8" rx="2" width="193" y="270"/></g></g><g fill="#394046"><g transform="translate(420 93)"><rect height="67" rx="4" width="119"/><rect height="8" rx="2" width="107" x="127"/><rect height="8" rx="2" width="119" x="127" y="12"/><rect height="8" rx="2" width="60" x="127" y="24"/></g><g transform="translate(420 176)"><rect height="67" rx="4" width="119"/><rect height="8" rx="2" width="107" x="127"/><rect height="8" rx="2" width="119" x="127" y="12"/><rect height="8" rx="2" width="60" x="127" y="24"/></g><g transform="translate(420 259)"><rect height="67" rx="4" width="119"/><rect height="8" rx="2" width="107" x="127"/><rect height="8" rx="2" width="119" x="127" y="12"/><rect height="8" rx="2" width="60" x="127" y="24"/></g><g transform="translate(420 342)"><rect height="67" rx="4" width="119"/><rect height="8" rx="2" width="107" x="127"/><rect height="8" rx="2" width="119" x="127" y="12"/><rect height="8" rx="2" width="60" x="127" y="24"/></g></g></g></g></g></g></g></svg>