<svg height="566" width="566" xmlns="http://www.w3.org/2000/svg" xmlns:xlink="http://www.w3.org/1999/xlink"><defs><path id="a" d="m0 0h566v566h-566z"/><mask id="b" fill="#fff"><use fill="#fff" fill-rule="evenodd" xlink:href="#a"/></mask><mask id="c" fill="#fff"><rect fill="#fff" fill-rule="evenodd" height="445" rx="16" width="663"/></mask></defs><g fill="none" fill-rule="evenodd"><use fill="#1d252c" xlink:href="#a"/><g mask="url(#b)"><g transform="translate(86 59)"><rect height="443" rx="16" stroke="#fff" stroke-width="2" width="661" x="1" y="1"/><g mask="url(#c)"><g transform="translate(91 33)"><g fill="#394046"><rect height="16" rx="8" width="74" x="114"/><rect height="16" rx="8" width="74" x="204"/><rect height="16" rx="8" width="74" x="294"/><rect height="232" rx="8" width="232" y="44"/><rect height="149" rx="8" width="232" x="248" y="211"/><rect height="16" rx="2" width="98" x="248" y="92"/></g><rect height="22" rx="4" stroke="#394046" stroke-width="2" width="96" x="249" y="160"/><rect fill="#394046" height="8" rx="2" width="134" x="248" y="114"/><rect fill="#394046" height="8" rx="2" width="149" x="248" y="126"/><rect fill="#394046" height="8" rx="2" width="75" x="248" y="138"/></g></g></g></g><g mask="url(#b)"><g transform="translate(39 185)"><rect fill="#1d252c" height="348" rx="16" stroke="#fff" stroke-width="2" width="195" x="1" y="1"/><g transform="translate(24 25)"><rect fill="#394046" height="10" rx="5" width="46"/><rect fill="#394046" height="16" rx="2" width="98" y="199"/><rect height="22" rx="4" stroke="#394046" stroke-width="2" width="96" x="1" y="267"/><g fill="#394046"><rect height="8" rx="2" width="134" y="221"/><rect height="8" rx="2" width="149" y="233"/><rect height="8" rx="2" width="75" y="245"/><rect height="149" rx="8" width="149" y="34"/><rect height="10" rx="5" width="47" x="51"/><rect height="10" rx="5" width="46" x="103"/></g></g></g></g></g></svg>